HIERARCHY
ROOT Hips
{
	OFFSET 0.00000 0.00000 0.00000
	CHANNELS 6 Xposition Yposition Zposition Zrotation Yrotation Xrotation 
	JOINT LHipJoint
	{
		OFFSET 0 0 0
		CHANNELS 3 Zrotation Yrotation Xrotation
		JOINT LeftHip
		{
			OFFSET 1.64577 -1.42384 0.94276
			CHANNELS 3 Zrotation Yrotation Xrotation
			JOINT LeftKnee
			{
				OFFSET 2.11538 -5.81197 0.00000
				CHANNELS 3 Zrotation Yrotation Xrotation
				JOINT LeftAnkle
				{
					OFFSET 2.36541 -6.49893 0.00000
					CHANNELS 3 Zrotation Yrotation Xrotation
					JOINT LeftToe
					{
						OFFSET 0.17759 -0.48793 1.73865
						CHANNELS 3 Zrotation Yrotation Xrotation
						End Site
						{
							OFFSET 0.00000 -0.00000 0.91205
						}
					}
				}
			}
		}
	}
	JOINT RHipJoint
	{
		OFFSET 0 0 0
		CHANNELS 3 Zrotation Yrotation Xrotation
		JOINT RightHip
		{
			OFFSET -1.43750 -1.42384 0.94276
			CHANNELS 3 Zrotation Yrotation Xrotation
			JOINT RightKnee
			{
				OFFSET -2.10480 -5.78291 0.00000
				CHANNELS 3 Zrotation Yrotation Xrotation
				JOINT RightAnkle
				{
					OFFSET -2.34880 -6.45329 0.00000
					CHANNELS 3 Zrotation Yrotation Xrotation
					JOINT RightToe
					{
						OFFSET -0.22842 -0.62757 1.80469
						CHANNELS 3 Zrotation Yrotation Xrotation
						End Site
						{
							OFFSET -0.00000 -0.00000 0.95886
						}
					}
				}
			}
		}
	}
	JOINT lowerback
	{
		OFFSET 0 0 0
		CHANNELS 3 Zrotation Yrotation Xrotation
		JOINT Chest
		{
			OFFSET 0.06217 1.93758 -0.49272
			CHANNELS 3 Zrotation Yrotation Xrotation
			JOINT Chest2
			{
				OFFSET -0.03114 2.03621 -0.05830
				CHANNELS 3 Zrotation Yrotation Xrotation
				JOINT lowerneck
				{
					OFFSET 0 0 0
					CHANNELS 3 Zrotation Yrotation Xrotation
					JOINT Neck
					{
						OFFSET 0.04421 1.41010 0.26562
						CHANNELS 3 Zrotation Yrotation Xrotation
						JOINT Head
						{
							OFFSET -0.13407 1.43847 0.06181
							CHANNELS 3 Zrotation Yrotation Xrotation
							End Site
							{
								OFFSET -0.04980 1.45844 -0.00689
							}
						}
					}
				}
				JOINT LeftCollar
				{
					OFFSET 0 0 0
					CHANNELS 3 Zrotation Yrotation Xrotation
					JOINT LeftShoulder
					{
						OFFSET 2.18382 1.47753 -0.35694
CHANNELS 3 Zrotation Xrotation Yrotation
						JOINT LeftElbow
						{
OFFSET 0 -5.054600 0.000000
CHANNELS 3 Zrotation Xrotation Yrotation
							JOINT LeftWrist
							{
OFFSET 0 -3.390130 0.000000
CHANNELS 3 Zrotation Xrotation Yrotation
								JOINT lhand
								{
									OFFSET 0 0 0
CHANNELS 3 Zrotation Xrotation Yrotation
									JOINT LFingers
									{
OFFSET 0 -0.572420 -0.000000
CHANNELS 3 Zrotation Xrotation Yrotation
										End Site
										{
OFFSET 0 -0.461500 -0.000000
										}
									}
								}
								JOINT LThumb
								{
OFFSET 0 0.000000 0.000000
CHANNELS 3 Zrotation Xrotation Yrotation
									End Site
									{
OFFSET 0 -0.468550 0.468550
									}
								}
							}
						}
					}
				}
				JOINT RightCollar
				{
					OFFSET 0 0 0
					CHANNELS 3 Zrotation Yrotation Xrotation
					JOINT RightShoulder
					{
						OFFSET -2.06033 1.72839 -0.47437
CHANNELS 3 Zrotation Xrotation Yrotation
						JOINT RightElbow
						{
OFFSET 0 -5.070100 0.000000
CHANNELS 3 Zrotation Xrotation Yrotation
							JOINT RightWrist
							{
OFFSET 0 -3.149570 -0.000000
CHANNELS 3 Zrotation Xrotation Yrotation
								JOINT rhand
								{
									OFFSET 0 0 0
CHANNELS 3 Zrotation Xrotation Yrotation
									JOINT RFingers
									{
OFFSET 0 -0.718190 -0.000000
CHANNELS 3 Zrotation Xrotation Yrotation
										End Site
										{
OFFSET 0 -0.579020 -0.000000
										}
									}
								}
								JOINT RThumb
								{
OFFSET 0 0.000000 0.000000
CHANNELS 3 Zrotation Xrotation Yrotation
									End Site
									{
OFFSET 0 -0.587860 0.587860
									}
								}
							}
						}
					}
				}
			}
		}
	}
}
MOTION
Frames: 7
Frame Time: 0.008333333333333333
8.358500 15.445800 3.837900 -179.584000 7.005000 177.690000 0.000000 0.000000 0.000000 -17.681900 -15.169800 3.757600 1.301300 7.227000 20.389600 0.071900 18.265300 -26.454200 0.589300 -4.915100 -13.666600 0.000000 0.000000 0.000000 21.449900 15.773800 3.461800 -1.354600 -7.367600 20.809000 -0.605600 -21.960800 -34.704600 -1.448200 7.607200 -21.527100 0.201400 1.979100 7.695100 -1.143600 2.833000 2.855700 -1.535800 1.507500 -1.292500 11.685700 6.261900 -5.917400 -8.716600 8.052200 5.980600 -4.109600 3.938300 3.572600 0.000000 0.000000 0.000000 4.715000 2.484700 -23.763900 13.148800 -21.504900 2.507600 18.252600 3.747000 -6.200000 0.000000 0.000000 0.000000 -7.125000 0.000000 0.000000 -7.141900 36.425400 -1.515400 0.000000 0.000000 0.000000 -3.546200 6.365300 28.689800 -18.153800 -28.353700 -4.622100 -17.545900 -17.705000 -4.783400 0.000000 0.000000 0.000000 7.125000 0.000000 -0.000000 6.829400 24.962600 3.331700
8.357139 15.441294 3.839067 -179.468362 6.959712 177.731943 0.000000 0.000000 0.000000 -17.555278 -15.283974 3.615296 1.330461 7.304218 20.619805 0.089643 18.223622 -26.541950 0.588033 -4.909659 -13.651001 0.000000 0.000000 0.000000 21.534665 15.514233 3.384034 -1.341869 -7.334195 20.709334 -0.453946 -22.286259 -34.224867 -1.623941 8.033023 -22.815231 0.110498 1.833710 7.659480 -0.927300 2.634492 2.891958 -1.243269 1.406210 -1.255216 10.956680 6.429357 -5.797711 -8.273242 8.298220 5.666460 -3.846880 4.060350 3.434006 0.000000 0.000000 0.000000 4.249015 2.508895 -22.805394 13.191173 -21.566636 2.523124 18.232966 4.171656 -6.051288 0.000000 0.000000 0.000000 -7.125000 0.000000 0.000000 -7.139656 36.269149 -1.542372 0.000000 0.000000 0.000000 -3.900408 6.304188 29.119449 -18.106290 -28.292988 -4.599520 -17.109693 -17.272693 -4.886204 0.000000 0.000000 0.000000 7.125000 0.000000 0.000000 7.151259 24.867454 3.507164
8.357672 15.443105 3.839900 -179.497437 6.943422 177.754888 0.000000 0.000000 0.000000 -17.583616 -15.304778 3.609315 1.325967 7.292400 20.584577 0.062184 18.322543 -26.453101 0.615347 -5.020133 -13.966046 0.000000 0.000000 0.000000 21.444412 15.258036 3.175506 -1.356016 -7.371159 20.819817 -0.408725 -22.251856 -33.918751 -1.700896 8.213081 -23.363239 0.022767 1.828796 7.660006 -0.939770 2.622067 2.893983 -1.205923 1.399997 -1.256862 10.956651 6.474774 -5.789451 -8.166387 8.344600 5.579443 -3.812017 4.085913 3.406359 0.000000 0.000000 0.000000 4.260178 2.576471 -22.668255 13.260671 -21.667913 2.548753 18.240643 4.120675 -6.103577 0.000000 0.000000 0.000000 -7.125000 0.000000 0.000000 -7.139711 36.324144 -1.532724 0.000000 0.000000 0.000000 -3.780242 6.384895 29.057042 -18.192628 -28.402912 -4.640564 -16.655610 -16.824114 -4.811744 0.000000 0.000000 0.000000 7.125000 0.000000 0.000000 7.493772 24.956266 3.661807
8.358467 15.445158 3.840267 -179.537998 6.927761 177.768082 0.000000 0.000000 0.000000 -17.607009 -15.254246 3.582027 1.321342 7.280085 20.547923 0.045360 18.343914 -26.344696 0.640281 -5.119292 -14.249252 0.000000 0.000000 0.000000 21.356631 15.110022 3.027640 -1.369423 -7.406062 20.924121 -0.449412 -22.045546 -33.902940 -1.672495 8.147799 -23.163932 -0.047585 1.836101 7.663074 -0.982590 2.628444 2.906648 -1.210886 1.404084 -1.246434 10.819603 6.476857 -5.723951 -7.839310 8.323558 5.349395 -3.696459 4.082732 3.304430 0.000000 0.000000 0.000000 4.336057 2.659000 -22.684370 13.340292 -21.783755 2.578255 18.379475 3.919019 -6.080062 0.000000 0.000000 0.000000 -7.125000 0.000000 0.000000 -7.020931 36.307211 -1.509786 0.000000 0.000000 0.000000 -3.669608 6.514620 29.192343 -18.413111 -28.682846 -4.745847 -16.398142 -16.576732 -4.538928 0.000000 0.000000 0.000000 7.125000 0.000000 0.000000 7.698863 25.244454 3.711962
8.359211 15.445345 3.840578 -179.552666 6.893074 177.774888 0.000000 0.000000 0.000000 -17.598337 -15.203640 3.544168 1.318932 7.273753 20.528969 0.032889 18.328753 -26.221626 0.654998 -5.176571 -14.412959 0.000000 0.000000 0.000000 21.313815 15.020076 2.934894 -1.379622 -7.432510 21.003286 -0.512692 -21.830358 -34.011959 -1.609076 7.999267 -22.711868 -0.089873 1.829935 7.677142 -1.013052 2.619369 2.923708 -1.217944 1.400668 -1.237146 10.513495 6.467136 -5.609363 -7.339110 8.289483 5.012176 -3.505952 4.075713 3.146603 0.000000 0.000000 0.000000 4.369299 2.748809 -22.621480 13.406148 -21.879367 2.602653 18.606243 3.820430 -6.055460 0.000000 0.000000 0.000000 -7.125000 0.000000 0.000000 -6.828574 36.293947 -1.470206 0.000000 0.000000 0.000000 -3.567277 6.697545 29.352213 -18.752504 -29.109611 -4.910014 -16.249746 -16.330035 -4.218134 0.000000 0.000000 0.000000 7.125000 0.000000 0.000000 7.826299 25.578686 3.712947
8.359811 15.444009 3.840394 -179.553417 6.837312 177.780110 0.000000 0.000000 0.000000 -17.570873 -15.158427 3.451766 1.328348 7.298650 20.603245 0.031469 18.262050 -26.118724 0.666168 -5.219679 -14.536074 0.000000 0.000000 0.000000 21.297759 14.964391 2.906825 -1.381575 -7.437613 21.018387 -0.561258 -21.692023 -34.128849 -1.555367 7.871032 -22.322945 -0.121308 1.813995 7.694749 -1.028905 2.598458 2.946234 -1.215044 1.391530 -1.224603 10.162664 6.455517 -5.487659 -6.819723 8.258267 4.637716 -3.304340 4.069483 2.974396 0.000000 0.000000 0.000000 4.355405 2.837105 -22.504466 13.449053 -21.941629 2.618726 18.838543 3.800356 -6.015298 0.000000 0.000000 0.000000 -7.125000 0.000000 0.000000 -6.629769 36.264738 -1.431653 0.000000 0.000000 0.000000 -3.513099 6.939653 29.595389 -19.230961 -29.703800 -5.145128 -16.173668 -16.210728 -3.930390 0.000000 0.000000 0.000000 7.125000 0.000000 0.000000 7.898715 25.876886 3.692481
8.360167 15.441801 3.839967 -179.547002 6.765349 177.785332 0.000000 0.000000 0.000000 -17.533825 -15.114859 3.341908 1.341347 7.332792 20.705077 0.034133 18.172670 -26.017921 0.676481 -5.259142 -14.649109 0.000000 0.000000 0.000000 21.297616 14.915978 2.893936 -1.383000 -7.441199 21.029347 -0.566236 -21.691474 -34.157502 -1.558295 7.878021 -22.344062 -0.154010 1.786373 7.715012 -1.022953 2.562475 2.974144 -1.187724 1.374654 -1.209420 9.845348 6.464680 -5.397767 -6.399431 8.261197 4.302851 -3.135150 4.077447 2.827995 0.000000 0.000000 0.000000 4.279970 2.908769 -22.322376 13.460733 -21.958616 2.623100 18.981495 3.853885 -5.956996 0.000000 0.000000 0.000000 -7.125000 0.000000 0.000000 -6.503553 36.211279 -1.412619 0.000000 0.000000 0.000000 -3.520328 7.208509 29.897916 -19.799391 -30.399381 -5.429737 -16.122410 -16.245099 -3.781704 0.000000 0.000000 0.000000 7.125000 0.000000 0.000000 7.945441 26.031095 3.685883
